<?xml version="1.0" standalone="no"?><!DOCTYPE svg PUBLIC "-//W3C//DTD SVG 1.1//EN" "http://www.w3.org/Graphics/SVG/1.1/DTD/svg11.dtd"><svg width="267.578125" height="200" viewBox="0 0 267.578125 200" version="1.1" xmlns="http://www.w3.org/2000/svg" xmlns:xlink="http://www.w3.org/1999/xlink"><defs><style type="text/css"><![CDATA[
@font-face { font-family: ifont; src: url(http://at.alicdn.com/t/font_1442373896_4754455.eot?#iefix) format(embedded-opentype), url(http://at.alicdn.com/t/font_1442373896_4754455.woff) format(woff), url(http://at.alicdn.com/t/font_1442373896_4754455.ttf) format(truetype), url(http://at.alicdn.com/t/font_1442373896_4754455.svg#ifont) format(svg); }

]]></style></defs><g class="transform-group"><g transform="scale(0.1953125, 0.1953125)"><path d="M641.894318 585.231756c-10.758918 6.35409-20.576575 13.000455-31.100753 18.219969-7.24242 3.594744-14.590704 6.848886-22.014933 9.84067 7.424229-2.991785 14.772512-6.245926 22.017234-9.84067C621.317743 598.232211 631.135399 591.588148 641.894318 585.231756zM479.518653 641.488816c15.384678-2.536113 30.691109-5.385213 45.829539-8.828066-15.140732 3.442854-30.449464 6.291953-45.831841 8.828066-19.437395 3.203511-39.07501 5.396719-58.701118 7.177982-8.234312 0.745645-16.480131 1.500495-24.730553 2.160989 8.252723-0.660494 16.498542-1.415344 24.732854-2.160989C440.443644 646.887836 460.081258 644.694628 479.518653 641.488816zM274.717181 812.22997c-25.450883-1.242741-50.922477-3.41984-76.191552-6.678584-7.787846-1.003399-15.561883-2.151784-23.329017-3.364607 7.764832 1.212824 15.53887 2.361209 23.326715 3.366909C223.792402 808.81013 249.261695 810.987229 274.717181 812.22997c31.02941 1.516605 62.095643 1.804276 93.108943 0.253151C336.815125 814.034246 305.746591 813.746575 274.717181 812.22997zM35.717307 760.614779c-11.012069-6.459954-21.248576-13.93021-28.159598-25.055046-3.571731-5.748829-5.417432-11.898098-5.396719-18.799915 0.119671-42.423507 0.057534-84.847015 0.069041-127.270522 0-1.380824 0.140384-2.761647 0.260055-4.957157 0 0-0.002301 0-0.002301-0.002301-0.119671 2.197811-0.260055 3.578635-0.260055 4.959459-0.011507 42.423507 0.052932 84.847015-0.069041 127.270522-0.020712 6.901817 1.824989 13.051086 5.396719 18.799915 6.913324 11.124836 17.147529 18.595093 28.159598 25.055046 27.494502 16.128021 57.591856 25.508417 88.453266 32.136371 3.926142 0.842302 7.868394 1.617865 11.808344 2.411839-3.937649-0.793974-7.879901-1.569536-11.806043-2.411839C93.306862 786.123196 63.211809 776.7428 35.717307 760.614779zM812.814979 987.889158c-21.43959-6.894913-42.354466-15.067088-60.86671-28.26316-9.97415-7.111242-18.933395-15.246595-22.705345-27.476091-0.961974-3.11836-1.514303-6.496776-1.521207-9.757821-0.10126-42.860768-0.073644-85.723838-0.062137-128.584606 0-1.093152 0.197918-2.184003 0.386631-4.101046 0 0-0.002301 0-0.002301-0.002301-0.186411 1.919345-0.384329 3.012497-0.386631 4.103348-0.011507 42.860768-0.039123 85.723838 0.062137 128.584606 0.006904 3.261045 0.559234 6.639461 1.521207 9.757821 3.774252 12.229495 12.731195 20.364849 22.705345 27.476091C770.458211 972.824372 791.373088 980.996547 812.814979 987.889158c38.501968 12.381386 78.168431 19.352244 118.221524 23.996415 20.797507 2.411839 41.746904 3.684498 62.664082 4.860499-20.917178-1.176002-41.866575-2.446359-62.66178-4.860499C890.985711 1007.241403 851.32155 1000.270544 812.814979 987.889158zM590.546086 770.091833c-4.96176 2.250743-10.020177 4.310471-15.140732 6.243625C580.525909 774.404606 585.584326 772.342576 590.546086 770.091833zM375.294079 652.210912c3.343895-0.172603 6.68779-0.370521 10.031684-0.596056C381.98417 651.840391 378.640275 652.038309 375.294079 652.210912zM1041.704922 1018.271883c-7.449544-0.05063-14.899088-0.216329-22.348632-0.439562C1026.805834 1018.053253 1034.255378 1018.221253 1041.704922 1018.271883zM1278.028299 989.246968c-19.103696 5.919131-38.573311 10.399904-58.243145 14.109717C1239.454988 999.649174 1258.924603 995.168401 1278.028299 989.246968zM641.887413 798.688692c0-1.37392-0.13348-2.750141-0.230137-4.66028-1.157591 0.757152-1.818085 1.222029-2.508496 1.633975-11.244508 6.699296-22.058659 14.303032-33.823277 19.911478-33.199605 15.826541-68.636144 24.583265-104.597397 31.572534-30.145683 5.859295-60.530709 10.027082-91.106749 12.176564-29.330997 2.06203-58.781666 3.60395-88.167896 3.440552-31.114561-0.172603-62.240629-2.218523-93.311464-4.236827-18.224572-1.185207-36.458349-3.224223-54.489605-6.123953-21.273891-3.41984-42.458028-7.640558-63.453453-12.491852-26.960583-6.232118-53.274481-14.719581-77.935992-27.510611-10.162863-5.267842-19.773396-11.594317-29.878724-17.58479 10.105328 5.990474 19.715861 12.316948 29.876423 17.587091 24.661512 12.79103 50.975409 21.278494 77.935992 27.510611 20.995425 4.853595 42.179562 9.074313 63.453453 12.491852 18.031256 2.897428 36.265034 4.938746 54.489605 6.123953 31.070835 2.018304 62.196903 4.064224 93.311464 4.236827 29.38623 0.163397 58.834597-1.376221 88.167896-3.440552 30.57604-2.151784 60.961066-6.317269 91.106749-12.176564 35.961252-6.989269 71.397792-15.745993 104.597397-31.572534 11.764618-5.608446 22.578769-13.212182 33.823277-19.911478 0.690412-0.411946 1.350906-0.876823 2.508496-1.633975 0.098959 1.910139 0.230137 3.28636 0.230137 4.66028 0.011507 42.27622-0.096658 84.554741 0.087452 126.83096 0.041425 9.819958-3.433648 17.973722-9.610533 25.200033 0 0 0-0.002301 0.002301-0.002301 6.176885-7.226311 9.651958-15.380075 9.610533-25.200033C641.790756 883.243433 641.89892 840.964912 641.887413 798.688692zM1088.533257 857.569317c20.58578-1.086248 41.206081-1.937756 61.718218-3.893923 19.329231-1.8434 38.669968-4.262143 57.759856-7.767133 23.306003-4.278252 46.549869-9.221601 69.469241-15.214376 27.50831-7.19179 54.017824-17.28331 78.060266-32.930344 2.895127-1.882523 5.693596-3.912334 8.857984-6.174583-3.164388 2.264551-5.965158 4.29206-8.860286 6.174583-24.042442 15.644733-50.551956 25.738554-78.060266 32.930344-22.921674 5.992775-46.163238 10.933822-69.469241 15.214376-19.089888 3.504991-38.430626 5.923734-57.759856 7.767133C1129.739338 855.631561 1109.116736 856.483069 1088.533257 857.569317c-46.646527 2.460168-93.210204 0.747946-139.651908-3.530306C995.323053 858.319565 1041.889032 860.029485 1088.533257 857.569317zM727.772347 586.46299c0.041425-0.478686 0.085151-0.998796 0.128877-1.64318C727.857498 585.464195 727.813772 585.984305 727.772347 586.46299zM1367.717402 716.175269c0.011507 9.240012-3.304771 17.179748-9.048998 24.175922-11.297439 13.759908-26.417459 22.157618-42.227891 29.406943-26.1505 11.990153-53.647303 19.874656-81.78849 25.427869-19.181943 3.785758-38.453639 7.260831-57.810486 9.992561-3.875512 0.547727-7.762531 1.028714-11.651851 1.479783 3.891622-0.451069 7.780942-0.932056 11.658755-1.479783 19.356847-2.73173 38.626242-6.206803 57.810486-9.992561 28.141187-5.553213 55.635689-13.437716 81.78849-25.427869 15.810432-7.249325 30.930451-15.647034 42.227891-29.406943 5.744227-6.998475 9.060505-14.93591 9.048998-24.175922-0.048329-42.575398-0.018411-85.153097-0.029918-127.728496 0-1.320988-0.140384-2.644277-0.230137-4.264444-0.002301 0.002301-0.004603 0.002301-0.006904 0.004603 0.092055 1.617865 0.230137 2.938853 0.230137 4.259841C1367.698991 631.022172 1367.669073 673.599871 1367.717402 716.175269zM1367.648361 303.124867c-0.027616 10.029383-4.685595 18.300517-11.359576 25.455485-12.786428 13.709278-29.045627 22.088577-45.960718 29.298778-25.098772 10.701384-51.240067 18.088791-77.988924 23.202441-19.630711 3.753539-39.305147 7.576119-59.129173 9.964945-23.729456 2.858305-47.606199 5.021596-71.47834 6.029597-28.813188 1.217426-57.702322 1.535016-86.540825 1.047125-21.738768-0.365918-43.489043-2.158688-65.156469-4.156279-19.338436-1.781263-38.67227-4.094142-57.828897-7.263133-40.379888-6.683187-80.290297-15.497445-117.37692-33.57703-10.406808-5.072226-20.30041-11.559796-29.547326-18.565175-7.461051-5.652172-12.632236-12.503359-15.412294-20.689342 2.780058 8.185983 7.951243 15.039472 15.414595 20.693945 9.244615 7.005379 19.138217 13.490648 29.547326 18.565175 37.086624 18.079585 76.997032 26.893843 117.37692 33.57703 19.156628 3.171292 38.490461 5.48187 57.828897 7.263133 21.667426 1.99529 43.417701 3.78806 65.156469 4.156279 28.836202 0.48559 57.725336 0.168 86.540825-1.047125 23.874442-1.008001 47.748884-3.171292 71.47834-6.029597 19.824026-2.388825 39.496161-6.211405 59.129173-9.964945 26.748857-5.113651 52.890151-12.501057 77.988924-23.202441 16.915091-7.212503 33.17429-15.591801 45.960718-29.298778 6.673981-7.15727 11.334261-15.428404 11.359576-25.455485 0.115069-43.293426 0.052932-86.586853 0.036822-129.877978 0-1.02181-0.237041-2.04592-0.271562-2.324387 0 0 0 0-0.002301 0 0.036822 0.283069 0.271562 1.297974 0.271562 2.319784C1367.703594 216.540316 1367.765731 259.833742 1367.648361 303.124867zM1008.272878 812.545258c39.450134 1.507399 78.897966 0.957371 118.274456-2.294469 6.321871-0.522412 12.648345-1.051727 18.972518-1.615564-6.324173 0.563836-12.652948 1.095453-18.979422 1.615564C1087.168543 813.500328 1047.723012 814.050356 1008.272878 812.545258zM815.838983 625.305562c27.386337 7.92823 55.299689 13.368675 83.484602 17.695256 19.094491 2.931949 38.223502 5.164281 57.384732 6.795954-19.158929-1.631673-38.28794-3.864005-57.38013-6.795954-28.184914-4.326581-56.100566-9.769328-83.484602-17.695256-24.38995-7.060612-48.172337-15.743692-70.106722-28.79938-3.458963-2.057427-6.828173-4.296663-10.287137-6.627954 3.458963 2.331291 6.825872 4.570527 10.280233 6.627954C767.666646 609.56187 791.449033 618.24495 815.838983 625.305562zM370.861635 603.502355c-16.441008 0.75485-33.413633 1.035618-54.892346 1.714523C337.448002 604.537973 354.420627 604.259507 370.861635 603.502355zM33.975168 551.051766c24.822608 14.922102 52.080068 23.598277 79.882954 30.737136 39.843668 10.229602 80.442187 16.121117 121.376706 19.283203 0.678905 0.052932 1.355509 0.098959 2.034414 0.151891-0.676604-0.05063-1.355509-0.098959-2.032112-0.151891-40.936821-3.162086-81.533038-9.053601-121.376706-19.283203C86.055236 574.650043 58.797775 565.973868 33.975168 551.051766c-9.327464-5.608446-17.971421-12.109824-24.477402-20.979315-10.623137-14.484841-9.914314-29.770559 1.836496-43.454522 11.276727-13.133935 25.987102-21.317617 41.378684-28.451873 22.288796-10.328561 45.643128-17.649229 69.579707-22.772085 22.767482-4.872006 45.686854-9.311355 68.737405-12.498756 22.238166-3.076936 44.697264-4.966363 67.121841-6.183789 3.093045-0.168 6.188392-0.303781 9.281437-0.455672-3.095347 0.154192-6.192994 0.287672-9.283738 0.455672-22.426879 1.217426-44.883675 3.106853-67.121841 6.183789-23.050551 3.187401-45.969923 7.62675-68.737405 12.498756-23.936579 5.122856-47.290911 12.443523-69.579707 22.772085-15.391582 7.131955-30.101957 15.317938-41.378684 28.451873-11.75081 13.683963-12.457331 28.969682-1.836496 43.454522C15.999144 538.941942 24.643101 545.44332 33.975168 551.051766zM1348.567679 62.557758c1.093152 0.915946 2.137975 1.889427 3.180497 2.867511C1350.707955 64.447186 1349.660831 63.471403 1348.567679 62.557758zM1268.157711 423.459052c13.069497-3.415237 25.964089-7.424229 38.612434-12.190372C1294.121799 416.034823 1281.227207 420.043814 1268.157711 423.459052zM576.963383 566.963458c-20.042656 8.008778-40.7343 13.994648-61.890821 18.265996C536.229084 580.960408 556.920727 574.974537 576.963383 566.963458zM1230.023962 590.957572c-23.775483 4.303567-47.617706 8.620943-71.614121 11.246809-46.347348 5.069924-92.892614 7.265434-139.541442 5.387514-19.020847-0.764056-38.078515-1.286467-57.023417-2.984881-21.211754-1.900934-42.405096-4.437047-63.437343-7.764832-19.718163-3.11836-39.381093-6.954749-58.77246-11.686371-30.14108-7.355188-59.571037-16.905885-85.712331-34.380209-8.701491-5.815569-16.415693-12.701277-21.768686-21.902166-3.125264-5.373706-4.503787-11.173165-4.503787-17.35005 0.002301-42.573097-0.004603-85.148495 0.009205-127.721591 0-1.222029 0.188713-2.444058 0.326795-4.114855 0 0-0.002301 0-0.002301-0.002301-0.138082 1.673098-0.326795 2.897428-0.326795 4.119457-0.013808 42.573097-0.006904 85.148495-0.009205 127.721591 0 6.176885 1.378522 11.976344 4.503787 17.35005 5.352993 9.20319 13.069497 16.086596 21.768686 21.902166 26.141294 17.474324 55.571251 27.027323 85.712331 34.380209 19.391368 4.731623 39.054298 8.568011 58.77246 11.686371 21.032247 3.325484 42.225589 5.861597 63.437343 7.764832 18.944901 1.698413 38.004872 2.220825 57.023417 2.984881 46.648828 1.875619 93.194094-0.317589 139.541442-5.387514C1182.403955 599.580816 1206.246178 595.26344 1230.023962 590.957572c24.939978-4.510691 49.313818-11.368782 72.935109-20.666328 17.630818-6.940941 34.654073-15.032568 48.917982-27.885735 0 0 0.002301-0.002301 0.002301-0.002301-14.263909 12.853167-31.287164 20.944794-48.917982 27.885735C1279.340081 579.586488 1254.96394 586.444579 1230.023962 590.957572zM429.555849 599.15276c-15.396184 1.914742-30.935054 2.860606-46.45091 3.709813C398.620794 602.013367 414.161965 601.069804 429.555849 599.15276zM1358.173609 117.903474c-12.229495 14.105114-28.166503 22.737564-44.883675 30.060532-27.533625 12.063797-56.300786 20.314218-85.850413 25.397951-28.065242 4.830582-56.227142 9.631245-84.545535 12.335359-15.308732 1.463673-30.663492 2.375017-45.73058 3.106853 15.06939-0.729535 30.426451-1.638577 45.735183-3.102251 28.320695-2.704113 56.480293-7.504777 84.545535-12.335359 29.549628-5.086034 58.316788-13.334154 85.850413-25.397951 16.714871-7.32527 32.65418-15.955418 44.883675-30.060532 11.693276-13.488346 12.512564-28.757955 2.020605-43.054084-2.282962-3.111456-4.789157-5.944446-7.474859-8.551902 2.683401 2.605154 5.189596 5.438144 7.470256 8.547299C1370.686173 89.145519 1369.866884 104.415128 1358.173609 117.903474zM879.230299 175.723166c-30.601355-4.796061-60.509997-12.680565-89.316281-24.263374-17.999037-7.237818-35.385909-15.628623-49.318421-29.602559 13.93021 13.976237 31.319383 22.369344 49.323023 29.607162 28.806284 11.580508 58.714926 19.467313 89.316281 24.263374 28.283873 4.432444 56.682814 8.531189 85.180714 11.094919 27.407049 2.462469 55.012017 2.768552 85.39244 4.153978-30.380423-1.385426-57.985391-1.69381-85.397043-4.158581C935.910811 184.254356 907.514171 180.155611 879.230299 175.723166zM641.894318 590.303982c0-1.675399 0-3.350799 0-5.072226-10.758918 6.356392-20.576575 13.000455-31.098452 18.219969-7.244722 3.594744-14.590704 6.848886-22.017234 9.84067-20.597287 8.301052-41.838959 14.457224-63.430439 19.368354-15.138431 3.442854-30.447163 6.291953-45.829539 8.828066-19.437395 3.205812-39.07501 5.399021-58.701118 7.177982-8.234312 0.745645-16.480131 1.500495-24.732854 2.160989-3.585539 0.287672-7.171078 0.545425-10.758918 0.78707-3.343895 0.225535-6.68779 0.423453-10.031684 0.596056-6.830475 0.35211-13.660949 0.596056-20.491424 0.642083-34.59884 0.227836-69.266721-0.115069-103.796519-2.103455-29.423052-1.696112-58.797775-5.300062-87.999896-9.440232-29.756751-4.220718-59.053228-11.11333-87.633977-20.604191-23.289893-7.734914-45.887074-17.046269-66.129949-31.275657-2.06203-1.449865-4.082635-2.959566-6.754529-4.899623 0 0 0 0 0 0.002301-0.119671 2.19551-0.260055 3.576333-0.260055 4.957157-0.011507 42.423507 0.05063 84.847015-0.069041 127.270522-0.020712 6.901817 1.824989 13.051086 5.396719 18.799915 6.911023 11.124836 17.147529 18.595093 28.159598 25.055046 27.494502 16.128021 57.589555 25.508417 88.453266 32.136371 3.923841 0.842302 7.868394 1.617865 11.806043 2.411839 13.016565 2.621264 26.097568 4.970965 39.219996 7.02379 7.767133 1.212824 15.541171 2.361209 23.329017 3.364607 25.269074 3.258744 50.740669 5.435843 76.191552 6.678584 31.031712 1.516605 62.097944 1.804276 93.108943 0.253151 10.337767-0.517809 20.66863-1.238139 30.992588-2.186304 26.359925-2.423346 52.676124-5.580829 78.897966-9.230807 29.669299-4.128663 58.756351-11.120234 87.097758-20.910274 3.551018-1.226632 7.083626-2.49699 10.590918-3.817978 5.120555-1.933153 10.178972-3.992882 15.140732-6.243625 11.888892-5.392117 23.220852-11.881988 33.473468-20.410876 11.612727-9.661163 18.337339-21.25548 18.086489-37.305254C641.468564 671.694335 641.894318 630.994555 641.894318 590.303982zM766.810535 763.809085c38.594023 20.275095 80.502023 29.844203 123.017585 37.059007 18.576682 3.152881 37.332871 5.403623 56.084457 7.302256 18.924189 1.917044 37.922022 3.362306 56.924458 4.179293 1.81118 0.078247 3.624662 0.126576 5.435843 0.195617 39.447832 1.505098 78.895665 0.95507 118.267552-2.294469 6.324173-0.522412 12.652948-1.051727 18.979422-1.615564 6.565817-0.584549 13.127031-1.219728 19.669834-1.976879 3.88932-0.451069 7.776339-0.932056 11.651851-1.479783 19.356847-2.73173 38.628544-6.206803 57.810486-9.992561 28.141187-5.553213 55.63799-13.437716 81.78849-25.427869 15.810432-7.249325 30.930451-15.647034 42.227891-29.406943 5.744227-6.996174 9.060505-14.93591 9.048998-24.175922-0.048329-42.575398-0.018411-85.153097-0.029918-127.728496 0-1.320988-0.138082-2.641976-0.230137-4.259841 0-0.002301 0-0.002301 0-0.004603-4.508389 3.182799-8.409216 6.158474-12.524071 8.798148-24.999813 16.033665-52.660014 25.750061-81.008325 33.717414-36.097033 10.146753-72.951219 16.588296-110.178226 20.463808-26.652199 2.773154-53.444782 4.892719-80.223557 5.668281-42.368274 1.228933-84.665206 0.554631-126.814851-3.033209-19.16123-1.631673-38.292543-3.864005-57.384732-6.795954-28.184914-4.326581-56.098265-9.767026-83.484602-17.695256-24.38995-7.060612-48.172337-15.743692-70.106722-28.79938-3.454361-2.057427-6.821269-4.296663-10.280233-6.627954-2.444058-1.647783-4.924938-3.332388-7.548503-5.058418-0.043726 0.644384-0.089754 1.164495-0.128877 1.64318-0.06674 0.796275-0.121973 1.438358-0.128877 2.059729-0.009205 42.865371 0 85.728441-0.006904 128.593812 0 7.456448 2.264551 14.169553 6.556611 20.215259C742.606997 749.179258 754.224327 757.197241 766.810535 763.809085zM641.885112 798.690993c0-1.37392-0.131178-2.750141-0.230137-4.66028-1.157591 0.757152-1.818085 1.222029-2.508496 1.633975-11.244508 6.699296-22.058659 14.303032-33.823277 19.911478-33.199605 15.826541-68.636144 24.583265-104.597397 31.572534-30.145683 5.859295-60.530709 10.02478-91.106749 12.176564-29.333299 2.064331-58.781666 3.60395-88.167896 3.440552-31.114561-0.172603-62.240629-2.218523-93.311464-4.236827-18.224572-1.185207-36.458349-3.226525-54.489605-6.123953-21.273891-3.417539-42.458028-7.638257-63.453453-12.491852-26.960583-6.232118-53.274481-14.719581-77.935992-27.510611-10.160561-5.270144-19.771094-11.596618-29.876423-17.587091-0.05063 0.529316-0.154192 1.090851-0.154192 1.654687 0 44.151838-0.002301 88.303677 0.046027 132.460118 0.002301 1.8434 0.342905 3.725923 0.78707 5.523295 2.904333 11.730098 10.839466 19.865451 19.945999 26.919158 18.48923 14.323745 39.8966 22.834222 61.860903 30.016806 32.619659 10.666863 66.070114 17.814927 100.10972 21.899864 26.01702 3.122963 52.096178 6.308063 78.239773 7.670476 29.653189 1.544221 59.446763 2.172496 89.11376 1.203618 31.370014-1.024111 62.746931-3.60395 93.95815-7.00768 22.111591-2.411839 44.03677-6.885708 65.888305-11.2307 27.701625-5.509487 54.712839-13.56199 80.398461-25.503814 14.83465-6.897214 28.944367-15.018759 39.783833-27.699324 0 0 0 0 0 0 6.176885-7.226311 9.651958-15.380075 9.610533-25.200033C641.788454 883.245734 641.896619 840.967213 641.885112 798.690993zM1367.701293 379.933186c-2.653483 1.578742-5.256336 3.178196-7.831572 4.770746-7.72801 4.779951-15.209773 9.509273-23.080468 13.467634-9.815355 4.941048-19.840135 9.260724-30.019108 13.094812-12.650647 4.768445-25.542937 8.775135-38.612434 12.190372-13.909498 3.633868-28.014612 6.616447-42.218685 9.177875-25.745458 4.641869-51.785492 7.914421-77.811718 10.682973-21.913672 2.331291-43.983838 3.820279-66.014881 4.321978-41.252109 0.936659-82.536437 1.116166-123.666572-3.215018-21.331425-2.24614-42.711179-4.250636-63.929837-7.32527-26.481898-3.836389-52.65311-9.40341-78.373253-16.933502-24.376141-7.136557-48.151625-15.739089-70.106722-28.734942-6.013487-3.560224-11.732399-7.619846-18.049667-11.75081 0 0.002301 0 0.002301 0 0.004603-0.138082 1.670797-0.326795 2.895127-0.326795 4.114855-0.013808 42.573097-0.006904 85.148495-0.009205 127.721591 0 6.176885 1.378522 11.976344 4.503787 17.35005 5.352993 9.200889 13.067195 16.086596 21.768686 21.902166 26.141294 17.474324 55.571251 27.025022 85.712331 34.380209 19.391368 4.731623 39.054298 8.568011 58.77246 11.686371 21.032247 3.327785 42.225589 5.863898 63.437343 7.764832 18.944901 1.698413 38.00257 2.220825 57.023417 2.984881 46.648828 1.87792 93.194094-0.317589 139.541442-5.387514 23.996415-2.625866 47.838638-6.943242 71.614121-11.246809 24.939978-4.512992 49.316119-11.371083 72.93741-20.66863 17.630818-6.940941 34.654073-15.032568 48.917982-27.885735l0 0c10.455137-9.419519 16.139528-20.664027 15.978432-35.319169-0.451069-40.837862-0.156493-81.682627-0.156493-122.525091C1367.701293 383.010122 1367.701293 381.461298 1367.701293 379.933186zM1367.701293 794.675098c0-1.150686 0-2.299071 0-3.801868 0-0.501699 0-1.040221 0-1.631673-1.152988 0.810083-2.248441 1.59255-3.30247 2.3474-3.164388 2.264551-5.962857 4.29206-8.857984 6.174583-24.042442 15.647034-50.551956 25.738554-78.060266 32.930344-22.919372 5.992775-46.163238 10.936124-69.469241 15.214376-19.089888 3.504991-38.430626 5.923734-57.759856 7.767133-20.512136 1.956167-41.132437 2.807675-61.718218 3.893923-46.644225 2.460168-93.210204 0.750248-139.651908-3.530306-1.712221-0.158795-3.424443-0.292274-5.136664-0.455672-21.467206-2.064331-42.821645-5.509487-64.150769-8.816559-25.038937-3.882416-49.65212-9.79004-73.805028-17.453612-25.059649-7.951243-49.35064-17.65153-71.0756-32.8567-2.057427-1.438358-4.08954-2.913538-6.667077-4.752335 0 0 0 0 0 0.002301-0.188713 1.917044-0.386631 3.007894-0.386631 4.101046-0.011507 42.860768-0.039123 85.723838 0.062137 128.584606 0.006904 3.261045 0.559234 6.639461 1.521207 9.757821 3.77195 12.229495 12.731195 20.364849 22.705345 27.476091 18.512243 13.196072 39.42712 21.368247 60.86671 28.26316 38.506571 12.381386 78.170732 19.352244 118.223826 23.996415 20.795205 2.411839 41.744602 3.682197 62.66178 4.860499 0.375124 0.020712 0.747946 0.043726 1.12307 0.064438 8.176778 0.457973 16.353556 0.775563 24.532635 1.019508 7.449544 0.223233 14.899088 0.388932 22.348632 0.439562 26.044637 0.177206 52.084671-0.678905 78.117801-2.446359 32.069631-2.177099 63.929837-5.863898 95.564508-11.638043 1.468276-0.266959 2.931949-0.554631 4.397924-0.830796 19.669834-3.709813 39.139448-8.190586 58.243145-14.109717 2.823785-0.874522 5.638364-1.77666 8.446038-2.71562 21.363644-7.148064 42.165754-15.559582 60.226928-29.473682 13.755306-10.597822 21.623699-23.572962 21.250877-42.027671C1367.139758 874.926271 1367.701293 834.794931 1367.701293 794.675098zM729.868898 313.872278c2.78236 8.183682 7.951243 15.034869 15.412294 20.689342 9.246916 7.005379 19.140518 13.492949 29.547326 18.565175 37.086624 18.079585 76.997032 26.893843 117.37692 33.57703 19.156628 3.16899 38.490461 5.48187 57.828897 7.263133 21.667426 1.997592 43.417701 3.790361 65.156469 4.156279 28.838503 0.487891 57.727637 0.170302 86.540825-1.047125 23.872141-1.008001 47.748884-3.171292 71.47834-6.029597 19.824026-2.388825 39.498463-6.211405 59.129173-9.964945 26.748857-5.113651 52.890151-12.501057 77.988924-23.202441 16.915091-7.210201 33.17429-15.5895 45.960718-29.298778 6.673981-7.154968 11.33196-15.426102 11.359576-25.455485 0.11737-43.291125 0.055233-86.584551 0.036822-129.877978 0-1.019508-0.23474-2.036715-0.271562-2.319784 0 0 0-0.004603 0-0.004603-11.463138 6.616447-22.461399 13.845059-34.191497 19.570875-34.932539 17.04857-72.29993 26.684418-110.339322 33.330783-26.762665 4.67639-53.806098 8.149161-80.86564 10.630041-27.117077 2.487784-54.392948 3.912334-81.622792 4.328882-58.036021 0.88833-115.818891-2.78236-173.169103-12.280126-25.996308-4.303567-51.69804-9.796944-76.911881-17.462817-24.030935-7.306859-47.369158-16.256898-68.753514-29.690011-4.370307-2.745538-8.538093-5.810966-13.9141-9.493163 0 0.727234 0 1.387728 0 1.99529 0 1.822687 0 3.178196-0.002301 4.531403 0 40.407505 0.361316 80.819612-0.181808 121.217912C727.381114 303.529909 728.191197 308.942738 729.868898 313.872278zM740.595597 121.857233c13.932511 13.973936 31.319383 22.364742 49.318421 29.602559 28.806284 11.58281 58.714926 19.467313 89.316281 24.263374 28.283873 4.432444 56.680512 8.531189 85.180714 11.094919 27.411652 2.46477 55.01662 2.773154 85.397043 4.158581 15.152239-0.807782 31.086945-1.385426 47.35535-2.172496 15.06939-0.729535 30.424149-1.64318 45.73058-3.106853 28.318393-2.704113 56.480293-7.504777 84.545535-12.335359 29.549628-5.083733 58.316788-13.334154 85.850413-25.397951 16.717173-7.322968 32.65418-15.955418 44.883675-30.060532 11.693276-13.488346 12.512564-28.757955 2.020605-43.054084-2.280661-3.109155-4.786856-5.942145-7.470256-8.547299-0.315288-0.306083-0.65359-0.577645-0.973481-0.876823-1.042522-0.978083-2.089647-1.951564-3.180497-2.867511-7.134256-5.978967-15.253499-10.69448-23.68573-14.915198-41.051889-20.539753-85.35792-29.862614-130.225485-36.932432-16.627419-2.618962-33.39292-4.584335-50.169929-5.969761-23.271482-1.921646-46.593595-3.689101-69.927215-4.312773-37.362789-1.001097-74.741687-0.391233-111.991708 3.180497-18.919586 1.813482-37.875995 3.518799-56.669005 6.280447-17.911585 2.632771-35.703499 6.222912-53.414864 10.020177-26.355322 5.64987-52.091575 13.389387-76.548264 24.942279-13.230593 6.250529-25.846719 13.502155-36.156869 24.099977-16.12572 16.57909-16.132624 35.45495-0.098959 52.001821C739.981131 121.263479 740.291816 121.553452 740.595597 121.857233zM191.030058 422.895215c-23.050551 3.187401-45.969923 7.62675-68.737405 12.498756-23.936579 5.122856-47.290911 12.443523-69.579707 22.772085-15.391582 7.134256-30.101957 15.317938-41.378684 28.451873-11.75081 13.683963-12.459633 28.969682-1.836496 43.454522 6.505981 8.869491 15.149938 15.370869 24.479703 20.979315 24.820306 14.922102 52.077767 23.598277 79.882954 30.737136 39.843668 10.229602 80.439886 16.121117 121.376706 19.283203 0.676604 0.052932 1.355509 0.098959 2.032112 0.151891 24.479703 1.836496 48.940995 2.658086 69.773023 3.578635 3.058525 0.135781 6.038802 0.271562 8.929327 0.414247 21.478713-0.681206 38.451338-0.959672 54.892346-1.714523 2.07814-0.096658 4.147074-0.197918 6.216008-0.310685 2.006797-0.110466 4.015896-0.21863 6.024994-0.329096 15.515856-0.849207 31.057027-1.795071 46.45091-3.709813 0.895234-0.110466 1.795071-0.211726 2.690305-0.329096 25.796088-3.410635 51.507026-7.668174 77.091388-12.443523 1.917044-0.359014 3.82258-0.764056 5.735021-1.150686 21.156521-4.271348 41.850466-10.254917 61.890821-18.265996 4.494581-1.795071 8.96845-3.656881 13.39399-5.659076 14.648238-6.630255 28.587654-14.427307 39.84597-26.214938 15.508952-16.238487 15.437609-34.812867 0.020712-51.055957-7.741818-8.156065-16.841447-14.468731-26.684418-19.688245-38.271831-20.291205-79.853036-29.998395-122.090132-37.105035-21.697343-3.649977-43.613317-6.365597-65.538497-8.211298-26.428966-2.225428-52.959192-3.903128-79.466405-4.296663-22.990715-0.342905-46.025156 0.384329-69.011268 1.523509-3.093045 0.154192-6.190693 0.287672-9.281437 0.455672C235.727321 417.928853 213.268224 419.81828 191.030058 422.895215z" fill="#11cd6e"></path></g></g></svg>